<svg xmlns="http://www.w3.org/2000/svg" width="32" height="32" viewBox="-2 -2 28 28">
  <!--
    Cable icon geometry from Lucide, licensed under the ISC License.

    Copyright (c) 2026 Lucide Icons and Contributors

    Permission to use, copy, modify, and/or distribute this software for any
    purpose with or without fee is hereby granted, provided that the above
    copyright notice and this permission notice appear in all copies.

    THE SOFTWARE IS PROVIDED "AS IS" AND THE AUTHOR DISCLAIMS ALL WARRANTIES
    WITH REGARD TO THIS SOFTWARE INCLUDING ALL IMPLIED WARRANTIES OF
    MERCHANTABILITY AND FITNESS. IN NO EVENT SHALL THE AUTHOR BE LIABLE FOR
    ANY SPECIAL, DIRECT, INDIRECT, OR CONSEQUENTIAL DAMAGES OR ANY DAMAGES
    WHATSOEVER RESULTING FROM LOSS OF USE, DATA OR PROFITS, WHETHER IN AN
    ACTION OF CONTRACT, NEGLIGENCE OR OTHER TORTIOUS ACTION, ARISING OUT OF
    OR IN CONNECTION WITH THE USE OR PERFORMANCE OF THIS SOFTWARE.
  -->
  <rect x="-2" y="-2" width="28" height="28" rx="6" fill="#101012"/>
  <g fill="none" stroke="#ff5a36" stroke-width="2.25" stroke-linecap="round" stroke-linejoin="round">
    <path d="M17 19a1 1 0 0 1-1-1v-2a2 2 0 0 1 2-2h2a2 2 0 0 1 2 2v2a1 1 0 0 1-1 1Z"/>
    <path d="M17 21v-2M19 14V6.5a1 1 0 0 0-7 0v11a1 1 0 0 1-7 0V10M21 21v-2M3 5V3"/>
    <path d="M4 10a2 2 0 0 1-2-2V6a1 1 0 0 1 1-1h4a1 1 0 0 1 1 1v2a2 2 0 0 1-2 2Z"/>
    <path d="M7 5V3"/>
  </g>
</svg>
